:SAMPLES-PER-SECOND 30
:FULLY-SPECIFIED
:DEGREES
343
root  -9.36911 34.3264 35.1542 -167.54 -1.02798 178.421
RightUpLeg  -12.7655 -12.6373 -1.17968
RightLeg  18.3073 -1.09132 -0.285936
RightFoot  -6.9314 -0.0142639 0.31746
RightToes  -24.9925 -0.111002 -0.215701
Spine  -0.930416 0.792566 -1.42766
Spine1  -1.97498 1.68443 -2.1849
HEad  -53.984 -1.49894 4.30961
LeftShoulder1  -1.94126e-019 -3.10601e-018 -2.51263e-017
LeftArm  -14.3244 22.4687 -77.6683
LeftForeArm  34.7832 -9.93545 -1.73736
LeftHand  -0.422928 -0.880002 7.96037
RightShoulder  -4.96962e-017 0 -2.36833e-017
RightArm  -27.4249 -21.8132 78.1921
RightForeArm  56.083 16.4199 1.01906
RightHand  -0.447192 0.152318 -9.42499
LeftUpLeg  -13.2989 6.16137 -4.01459
LeftLeg  14.1715 16.9548 3.08867
LeftFoot  -3.53901 -0.0338146 -0.932963
LeftToes  -19.9011 1.31378e-006 1.14341e-007
344
root  -9.2676 34.3553 35.2221 -167.457 0.907623 179.134
RightUpLeg  -12.0742 -8.87249 -0.462485
RightLeg  15.9841 -2.90996 -0.634262
RightFoot  -5.74514 -0.00374858 0.490956
RightToes  -23.8724 -0.104081 -0.207205
Spine  -0.980088 1.09122 -1.26022
Spine1  -2.06556 2.35895 -1.86224
HEad  -54.7366 0.291644 3.58013
LeftShoulder1  -1.94126e-019 -3.10601e-018 -2.51263e-017
LeftArm  -18.7688 23.6259 -78.3116
LeftForeArm  35.4315 -7.20855 -1.25291
LeftHand  -0.443676 -0.342023 9.08099
RightShoulder  -4.96962e-017 0 -2.36833e-017
RightArm  -25.8335 -20.4282 77.8797
RightForeArm  56.0417 16.5736 1.02044
RightHand  -0.451915 0.0844533 -9.63568
LeftUpLeg  -13.8098 7.17687 -3.43131
LeftLeg  15.021 17.8865 3.52231
LeftFoot  -3.30291 -0.0308903 -0.909825
LeftToes  -18.7487 1.31378e-006 1.14341e-007
345
root  -9.15995 34.4218 35.2577 -167.417 2.69199 179.784
RightUpLeg  -11.5041 -6.26102 0.108135
RightLeg  14.1824 -3.65843 -0.676858
RightFoot  -4.26468 -0.00368006 0.47511
RightToes  -23.528 -0.100747 -0.204492
Spine  -1.01082 1.23899 -1.04952
Spine1  -2.08202 2.7106 -1.4451
HEad  -55.2329 2.04075 3.1244
LeftShoulder1  -1.94126e-019 -3.10601e-018 -2.51263e-017
LeftArm  -21.9937 24.886 -79.0678
LeftForeArm  34.6254 -5.12656 -0.884998
LeftHand  -0.451075 0.137579 10.0301
RightShoulder  -4.96962e-017 0 -2.36833e-017
RightArm  -24.6863 -18.9904 77.4971
RightForeArm  55.8329 16.7995 1.03345
RightHand  -0.449024 0.0650556 -9.60662
LeftUpLeg  -13.9937 7.62587 -2.84404
LeftLeg  15.5065 19.32 3.96018
LeftFoot  -2.88743 -0.0254236 -0.847168
LeftToes  -17.3889 1.31378e-006 1.14341e-007
346
root  -9.06129 34.4682 35.2773 -167.46 3.86028 -179.773
RightUpLeg  -11.0974 -6.91825 0.516365
RightLeg  13.0161 -1.82376 -0.299021
RightFoot  -2.94356 -0.00731266 0.284639
RightToes  -24.7306 -0.0982046 -0.20423
Spine  -1.04189 1.16496 -0.830778
Spine1  -2.09723 2.59175 -1.00767
HEad  -55.1254 3.31836 3.11624
LeftShoulder1  -1.94126e-019 -3.10601e-018 -2.51263e-017
LeftArm  -23.0382 26.4819 -79.8891
LeftForeArm  32.8711 -4.46978 -0.771616
LeftHand  -0.424521 0.507675 10.1217
RightShoulder  -4.96962e-017 0 -2.36833e-017
RightArm  -23.1632 -18.399 76.9538
RightForeArm  54.9935 19.0815 1.43685
RightHand  -0.423938 -0.0224101 -9.21196
LeftUpLeg  -14.1116 7.78917 -2.3751
LeftLeg  16.057 20.3974 4.37079
LeftFoot  -2.61701 -0.0220365 -0.803163
LeftToes  -16.6673 1.31378e-006 1.14341e-007
347
root  -8.95683 34.4636 35.2893 -167.53 4.57362 -179.638
RightUpLeg  -11.1638 -7.62086 0.738355
RightLeg  13.0479 -0.48112 -0.0788113
RightFoot  -2.78723 -0.00864097 0.2069
RightToes  -24.3601 -0.0967598 -0.20524
Spine  -1.03209 1.0385 -0.682081
Spine1  -2.05463 2.35251 -0.719044
HEad  -54.6097 4.00451 3.43222
LeftShoulder1  -1.94126e-019 -3.10601e-018 -2.51263e-017
LeftArm  -22.5549 27.7953 -80.575
LeftForeArm  31.6516 -4.82295 -0.8349
LeftHand  -0.416103 0.313291 9.55833
RightShoulder  -4.96962e-017 0 -2.36833e-017
RightArm  -21.8513 -18.3132 76.3929
RightForeArm  54.1293 21.9677 2.01251
RightHand  -0.428437 0.0604748 -9.17549
LeftUpLeg  -14.3792 8.19504 -2.15244
LeftLeg  16.886 20.7053 4.73983
LeftFoot  -2.54645 -0.0212134 -0.792868
LeftToes  -16.6272 1.31378e-006 1.14341e-007
348
root  -8.83881 34.4452 35.2807 -167.6 5.08275 -179.534
RightUpLeg  -11.238 -7.10591 0.948207
RightLeg  13.3009 -0.447008 -0.0752757
RightFoot  -2.95126 -0.0107793 0.205378
RightToes  -23.9492 -0.0967185 -0.206341
Spine  -0.994114 0.920306 -0.538944
Spine1  -1.97228 2.12677 -0.445809
HEad  -54.063 4.48687 3.82851
LeftShoulder1  -1.94126e-019 -3.10601e-018 -2.51263e-017
LeftArm  -21.9341 28.6792 -81.108
LeftForeArm  31.574 -5.85316 -1.01677
LeftHand  -0.41453 -0.223994 8.65693
RightShoulder  -4.96962e-017 0 -2.36833e-017
RightArm  -20.9589 -18.4805 75.9139
RightForeArm  53.4442 24.5477 2.53966
RightHand  -0.437072 -0.0361039 -9.51928
LeftUpLeg  -14.6634 8.97465 -1.92887
LeftLeg  17.7392 20.4399 4.995
LeftFoot  -2.6224 -0.0222864 -0.812094
LeftToes  -17.1575 1.31378e-006 1.14341e-007
